<svg xmlns="http://www.w3.org/2000/svg" width="944" height="704" fill="none" viewBox="0 0 944 704">
<!-- SVG created with Arrow, by QuiverAI (https://quiver.ai) -->
  <path d="m386.4 306.7c-8.448 0-15.84 2.288-20.68 6.16-0.88-15.14-0.616-33.09-0.968-41.1-0.352-10.03-8.448-16.54-16.81-16.54-8.888 0-17.16 6.776-18.74 19.89-2.552 22.44-0.176 64.94 5.368 93.98 3.96 21.3 13.55 30.01 22.97 30.01 6.424 0 12.06-3.608 14.87-8.448 4.928 3.696 11.53 5.984 18.3 5.984 18.92 0 34.58-16.98 34.58-43.82 0-28.6-16.98-46.11-38.9-46.11zm-4.7 57.8a11.5 11.5 0 1 1 0-23 11.5 11.5 0 0 1 0 23z" fill="#4E2A4A" fill-rule="evenodd" id="letter_b"/></svg>
