<svg xmlns="http://www.w3.org/2000/svg" width="944" height="704" fill="none" viewBox="0 0 944 704">
<!-- SVG created with Arrow, by QuiverAI (https://quiver.ai) -->
  <rect x="120" width="704" height="704" fill="#fff" fill-opacity=".65"/>
  <path d="m290.7 296.3c0-29.74 0.792-43.74 3.608-55.79 8.272-35.64 35.64-64.59 76.56-70.58 10.38-1.936 24.73-3.168 47.26-3.168h112.1c22.53 0 36.87 1.232 47.26 3.168 40.92 5.984 67.06 34.94 73.92 70.58 2.376 12.06 3.872 26.05 3.872 55.79v107.4c0 22.97-1.056 36.08-3.872 47.17-8.888 38.28-40.57 66.26-80.34 72.95-10.12 1.672-22.44 0.792-40.83 0.792h-117.4c-18.39 0-30.71 0.88-41.98-0.792-38.98-5.984-69.61-34.67-77.09-72.95-2.288-11.7-3.08-25.08-3.08-47.17v-107.4z" fill="#4E2A4A" stroke="#4E2A4A" stroke-width="1.46"/>
  <path d="m389.2 429.8c52.18-19.1 113.2-23.32 160.9-17.51" stroke="#E4895E" stroke-linecap="round" stroke-width="16"/>
  <path d="m386.4 306.7c-8.448 0-15.84 2.288-20.68 6.16-0.88-15.14-0.616-33.09-0.968-41.1-0.352-10.03-8.448-16.54-16.81-16.54-8.888 0-17.16 6.776-18.74 19.89-2.552 22.44-0.176 64.94 5.368 93.98 3.96 21.3 13.55 30.01 22.97 30.01 6.424 0 12.06-3.608 14.87-8.448 4.928 3.696 11.53 5.984 18.3 5.984 18.92 0 34.58-16.98 34.58-43.82 0-28.6-16.98-46.11-38.9-46.11z" fill="#F4EAD5"/>
  <circle cx="381.7" cy="353" r="11.5" fill="#4E2A4A"/>
  <path d="m483.4 297c-8.712 0-13.99 5.544-13.64 13.46 0.352 6.776 1.056 12.94 1.056 19.01 0 8.36-3.256 12.14-8.096 12.14-5.984 0-8.712-5.896-8.976-16.28-0.088-4.576-0.088-9.328-0.44-13.46-0.616-8.448-7.04-13.46-13.82-13.46-8.272 0-14.34 6.248-14.08 16.37 0.352 13.29 2.024 27.37 4.664 38.9 5.016 22.62 18.83 32.82 34.41 32.82 21.56 0 34.94-13.38 35.99-42.24 0.616-13.2-0.176-25.96-2.288-35.29-1.496-7.832-7.568-11.97-14.78-11.97z" fill="#F4EAD5"/>
  <path d="m540.6 295.9c-6.072 0-11.26 2.728-13.82 6.6-2.288-3.784-6.16-5.632-10.38-5.632-7.568 0-12.5 5.544-11.88 13.99 1.32 19.71 3.08 43.82 4.84 57.55 1.408 11.35 8.976 16.46 16.72 16.46 10.12 0 17.78-7.216 16.72-16.63-1.232-11.79-3.52-24.2-3.872-31.42-0.264-5.016 3.872-7.656 9.768-10.74 6.072-3.168 8.888-8.624 8.888-15.05 0-9.416-7.832-15.14-16.98-15.14z" fill="#F4EAD5"/>
  <path d="m594.7 251.1c-20.15 0-31.94 13.11-31.94 34.06 0 10.74 0.88 23.14 1.584 31.77-4.136 2.816-6.336 6.952-6.336 11.44 0 6.16 3.96 10.56 8.712 11.09 1.056 14.08 2.2 29.92 3.256 39.42 1.056 10.38 8.624 16.28 15.58 16.28 10.03 0 17.34-8.448 16.54-18.57-0.968-12.5-3.696-28.86-4.928-38.46 10.21-0.528 14.26-6.16 14.26-14.52 0-11.09-7.216-16.19-17.95-15.14-0.704-7.392-1.232-15.31-1.232-20.24 0-4.4 2.2-6.16 5.72-6.16 2.728 0 5.808 1.32 8.712 1.32 7.48 0 11.97-6.952 11.97-14.61 0-11.26-9.768-17.69-23.94-17.69z" fill="#F4EAD5"/>
</svg>
